<?xml version="1.0" standalone="no"?>
<!DOCTYPE svg PUBLIC "-//W3C//DTD SVG 20010904//EN"
 "http://www.w3.org/TR/2001/REC-SVG-20010904/DTD/svg10.dtd">
<svg version="1.0" xmlns="http://www.w3.org/2000/svg"
 width="615.000000pt" height="617.000000pt" viewBox="0 0 615.000000 617.000000"
 preserveAspectRatio="xMidYMid meet">

<g transform="translate(0.000000,617.000000) scale(0.100000,-0.100000)"
fill="#000000" stroke="none">
<path d="M0 3085 l0 -3085 3075 0 3075 0 0 3085 0 3085 -3075 0 -3075 0 0
-3085z m3914 1642 c3 -12 33 -65 67 -117 110 -167 329 -365 525 -475 89 -50
89 -50 99 -117 l7 -45 -48 -17 c-115 -39 -219 -138 -285 -271 -40 -83 -79
-214 -79 -270 l0 -32 -72 -6 c-40 -4 -84 -9 -98 -12 -24 -6 -26 -3 -38 52 -47
221 -214 428 -424 522 -75 34 -188 61 -255 61 l-47 0 65 68 c142 145 347 390
499 595 35 48 67 87 71 87 4 0 9 -10 13 -23z m-481 -862 c74 -19 159 -63 225
-115 55 -44 64 -60 32 -60 -57 0 -182 -68 -207 -113 -18 -32 -16 -45 12 -72
33 -33 57 -31 123 10 59 36 133 56 176 48 55 -11 113 -222 103 -379 -16 -267
-191 -496 -428 -559 -73 -20 -222 -19 -290 1 -317 94 -516 441 -445 775 26
120 50 161 135 231 42 35 117 100 167 145 52 47 105 86 125 91 53 16 208 14
272 -3z m1211 -62 c18 -133 26 -266 26 -441 l0 -192 46 -33 c135 -93 229 -185
271 -265 l18 -34 -30 -24 c-16 -14 -52 -37 -80 -52 -44 -23 -62 -27 -140 -27
-84 0 -95 2 -153 34 -224 122 -341 450 -265 746 19 76 22 81 39 56 8 -10 31
-25 52 -31 20 -7 48 -23 62 -36 38 -35 79 -40 113 -14 34 27 35 59 2 98 -34
40 -119 82 -168 82 l-39 0 35 48 c40 54 147 132 182 132 20 0 24 -6 29 -47z
m-2035 -447 c-11 -76 -12 -77 -38 -72 -14 3 -48 8 -76 12 -27 4 -54 9 -58 11
-5 3 33 33 85 68 51 34 94 62 96 60 1 -1 -3 -37 -9 -79z m1600 -172 c77 -459
474 -706 793 -494 l58 38 17 -56 c24 -80 24 -272 -1 -367 -100 -378 -466 -749
-846 -855 -182 -50 -511 -78 -715 -60 -232 22 -493 77 -700 150 -119 43 -329
134 -374 163 -161 104 -257 173 -391 277 -85 67 -169 133 -187 147 l-32 25
-75 -26 c-133 -46 -314 -33 -441 31 -281 142 -435 350 -435 587 0 265 139 446
374 487 205 35 387 -48 502 -230 9 -13 336 121 440 180 28 16 64 29 80 29 31
0 325 -47 329 -52 1 -2 9 -33 18 -71 38 -159 100 -269 217 -388 71 -71 101
-93 180 -133 156 -77 311 -95 464 -56 295 75 499 326 532 654 6 64 8 69 38 82
17 7 56 13 87 14 l55 0 13 -76z"/>
<path d="M3594 3401 c-57 -25 -91 -112 -71 -182 l13 -44 61 -8 c34 -4 83 -16
108 -27 26 -11 51 -20 56 -20 15 0 49 81 49 115 0 41 -31 104 -68 139 -23 22
-43 30 -79 32 -26 2 -58 0 -69 -5z"/>
<path d="M4420 3357 c-29 -14 -60 -70 -60 -109 0 -15 7 -46 16 -68 13 -31 21
-40 33 -35 9 4 42 9 73 12 62 6 68 13 68 88 0 48 -30 102 -66 115 -32 12 -34
12 -64 -3z"/>
<path d="M3585 2471 c-42 -25 -61 -49 -86 -106 -25 -57 -30 -160 -11 -217 13
-35 15 -37 45 -30 18 4 86 6 152 6 96 -1 140 -7 220 -28 203 -55 378 -140 489
-237 l48 -43 46 25 c69 36 158 128 190 196 54 115 29 292 -50 358 -16 14 -42
25 -56 25 l-27 0 3 -80 c5 -96 -18 -156 -72 -185 -44 -24 -131 -17 -174 13
l-31 22 -33 -20 c-39 -24 -122 -27 -172 -6 -48 20 -103 73 -118 112 l-12 34
-72 0 c-80 0 -124 12 -170 46 -28 21 -41 41 -70 111 -9 23 -9 23 -39 4z"/>
</g>
</svg>
